<?xml version="1.0" encoding="iso-8859-1"?>
<!-- Generator: Adobe Illustrator 19.0.0, SVG Export Plug-In . SVG Version: 6.00 Build 0)  -->
<svg version="1.1" id="Layer_1" xmlns="http://www.w3.org/2000/svg" xmlns:xlink="http://www.w3.org/1999/xlink" x="0px" y="0px"
	 viewBox="0 0 511.99 511.99" style="enable-background:new 0 0 511.99 511.99;" xml:space="preserve">
<rect y="106.675" style="fill:#F6BB42;" width="511.99" height="319.99"/>
<rect y="85.325" style="fill:#FFCE54;" width="511.99" height="319.99"/>
<path style="fill:#ED5564;" d="M469.332,330.665V159.997c-17.672,0-32-14.327-32-31.999H74.654
	c0,17.672-14.327,31.999-31.999,31.999v170.668c17.672,0,31.999,14.328,31.999,31.998h362.678
	C437.332,344.993,451.66,330.665,469.332,330.665z"/>
<path style="fill:#DA4453;" d="M437.332,127.998H74.654c0,17.672-14.327,31.999-31.999,31.999v170.668
	c17.672,0,31.999,14.328,31.999,31.998h362.678c0-17.67,14.328-31.998,32-31.998V159.997
	C451.66,159.997,437.332,145.67,437.332,127.998z M448.004,313.774c-12.281,5.391-22.155,15.266-27.546,27.547H91.529
	c-5.391-12.281-15.266-22.156-27.546-27.547V176.872c12.28-5.375,22.155-15.25,27.546-27.546h328.929
	c5.391,12.296,15.265,22.171,27.546,27.546V313.774z"/>
<g>
	<polygon style="fill:#FFCE54;" points="175.823,282.62 144.637,187.981 122.809,187.981 164.996,308.009 185.964,308.009 
		228.666,187.981 207.323,187.981 	"/>
	<rect x="249.113" y="187.985" style="fill:#FFCE54;" width="20.359" height="120.03"/>
	<path style="fill:#FFCE54;" d="M382.178,197.653c-6.422-6.421-15.891-9.671-28.124-9.671h-52.937v120.027h20.375v-47.014h32.53
		h0.641c11.937,0,21.202-3.234,27.515-9.609c6.422-6.469,9.672-15.516,9.672-26.906
		C391.849,213.106,388.599,204.075,382.178,197.653z M366.287,238.386c-3.422,3.094-9.016,4.672-16.64,4.672
		c-0.234,0-0.469-0.016-0.75-0.016h-27.405v-37.124h27.405c8.015,0,13.874,1.609,17.405,4.75c3.484,3.125,5.188,7.641,5.188,13.812
		C371.49,230.667,369.787,235.214,366.287,238.386z"/>
</g>
<g>
</g>
<g>
</g>
<g>
</g>
<g>
</g>
<g>
</g>
<g>
</g>
<g>
</g>
<g>
</g>
<g>
</g>
<g>
</g>
<g>
</g>
<g>
</g>
<g>
</g>
<g>
</g>
<g>
</g>
</svg>
